<svg xmlns="http://www.w3.org/2000/svg" xmlns:xlink="http://www.w3.org/1999/xlink" width="181" height="39.318" viewBox="0 0 181 39.318">
  <defs>
    <clipPath id="clip-path">
      <rect id="Rect치ngulo_2" data-name="Rect치ngulo 2" width="181" height="39.318" fill="#54c3bd"/>
    </clipPath>
  </defs>
  <g id="Grupo_1965" data-name="Grupo 1965" transform="translate(0 0)">
    <path id="Trazado_1" data-name="Trazado 1" d="M122.818,19.461v7.077H121.04V17.894h1.779Z" transform="translate(-18.856 -2.788)"/>
    <path id="Trazado_2" data-name="Trazado 2" d="M83.988,17.893v5.5l-.638-.936-.9-1.316-1.163-1.706-1-1.542H78.5v8.646h1.784V21.125l3.691,5.413.009-.006v.007h1.78V17.893Z" transform="translate(-12.23 -2.787)"/>
    <path id="Trazado_3" data-name="Trazado 3" d="M142.827,17.893v5.5l-.638-.936-.9-1.316-1.163-1.706-1-1.542h-1.784v8.646h1.784V21.125l3.691,5.413.009-.006v.007h1.78V17.893Z" transform="translate(-21.396 -2.787)"/>
    <g id="Grupo_2" data-name="Grupo 2" transform="translate(0 0)">
      <g id="Grupo_1" data-name="Grupo 1" clip-path="url(#clip-path)">
        <path id="Trazado_4" data-name="Trazado 4" d="M103.048,17.8h.156l3.952,8.724h-1.869l-.48-1.173h-3.362l-.481,1.173h-1.72Zm1.121,6.065-.55-1.307c-.241-.573-.493-1.451-.522-1.538-.013.04-.266.94-.506,1.538l-.548,1.307Z" transform="translate(-15.461 -2.773)"/>
        <path id="Trazado_5" data-name="Trazado 5" d="M89.266,17.894h2.662a4.328,4.328,0,1,1,0,8.645H89.266Zm2.57,7.079a2.527,2.527,0,0,0,2.8-2.761,2.523,2.523,0,0,0-2.8-2.75h-.785v5.511Z" transform="translate(-13.907 -2.788)"/>
        <path id="Trazado_6" data-name="Trazado 6" d="M58.654,17.893h5.725v1.568H60.432V21.44h3.474v1.527H60.432v3.572H58.654Z" transform="translate(-9.138 -2.788)"/>
        <path id="Trazado_7" data-name="Trazado 7" d="M110.05,22.059a4.353,4.353,0,0,1,4.456-4.416,3.761,3.761,0,0,1,3.455,1.763l-1.363.968a2.342,2.342,0,0,0-2.092-1.132,2.62,2.62,0,0,0-2.622,2.817,2.646,2.646,0,0,0,2.622,2.854,2.461,2.461,0,0,0,2.223-1.271l1.389.951a4.076,4.076,0,0,1-3.612,1.906,4.366,4.366,0,0,1-4.456-4.441" transform="translate(-17.144 -2.749)"/>
        <path id="Trazado_8" data-name="Trazado 8" d="M125.3,22.056a4.477,4.477,0,1,1,4.482,4.441,4.381,4.381,0,0,1-4.482-4.441m7.129,0a2.653,2.653,0,1,0-5.293,0,2.654,2.654,0,1,0,5.293,0" transform="translate(-19.521 -2.746)"/>
        <path id="Trazado_9" data-name="Trazado 9" d="M68.063,23.278V17.759h1.778v5.413c0,1.259.549,1.747,1.727,1.747s1.707-.488,1.707-1.747V17.759h1.781v5.519c0,2.186-1.516,3.239-3.488,3.239-1.994,0-3.505-1.054-3.505-3.239" transform="translate(-10.603 -2.767)"/>
        <path id="Trazado_10" data-name="Trazado 10" d="M155.022,17.665h.156l3.952,8.725h-1.869l-.48-1.173h-3.362l-.481,1.173h-1.72Zm1.121,6.065-.55-1.307c-.241-.572-.493-1.451-.521-1.538-.014.041-.266.94-.507,1.538l-.548,1.307Z" transform="translate(-23.558 -2.752)"/>
        <path id="Trazado_11" data-name="Trazado 11" d="M162.349,17.759h2.662a4.329,4.329,0,1,1,0,8.646h-2.662Zm2.57,7.08a2.527,2.527,0,0,0,2.8-2.761,2.523,2.523,0,0,0-2.8-2.75h-.785v5.511Z" transform="translate(-25.292 -2.767)"/>
        <path id="Trazado_12" data-name="Trazado 12" d="M173.05,17.759h5.725v1.568h-3.948v1.979H178.3v1.527h-3.474v2.006h4.123V26.4h-5.9Z" transform="translate(-26.959 -2.767)"/>
        <path id="Trazado_13" data-name="Trazado 13" d="M181.8,22.059a4.353,4.353,0,0,1,4.456-4.416,3.761,3.761,0,0,1,3.455,1.763l-1.363.968a2.341,2.341,0,0,0-2.092-1.132,2.62,2.62,0,0,0-2.622,2.817,2.646,2.646,0,0,0,2.622,2.854,2.461,2.461,0,0,0,2.223-1.271l1.389.951a4.076,4.076,0,0,1-3.612,1.906,4.366,4.366,0,0,1-4.456-4.441" transform="translate(-28.322 -2.749)"/>
        <path id="Trazado_14" data-name="Trazado 14" d="M192.8,22.059a4.349,4.349,0,0,1,4.45-4.416,3.769,3.769,0,0,1,3.462,1.763l-1.363.968a2.35,2.35,0,0,0-2.1-1.132,2.623,2.623,0,0,0-2.62,2.817,2.649,2.649,0,0,0,2.62,2.854,2.463,2.463,0,0,0,2.227-1.271l1.387.951a4.077,4.077,0,0,1-3.614,1.906,4.363,4.363,0,0,1-4.45-4.441" transform="translate(-30.036 -2.749)"/>
        <path id="Trazado_15" data-name="Trazado 15" d="M203.794,22.056a4.477,4.477,0,1,1,4.482,4.441,4.381,4.381,0,0,1-4.482-4.441m7.129,0a2.653,2.653,0,1,0-5.293,0,2.654,2.654,0,1,0,5.293,0" transform="translate(-31.749 -2.746)"/>
        <path id="Trazado_16" data-name="Trazado 16" d="M128.549,14.717h3.474v1.527h-3.474" transform="translate(-20.026 -2.293)"/>
        <rect id="Rect치ngulo_1" data-name="Rect치ngulo 1" width="1.08" height="39.318" transform="translate(41.009)"/>
        <path id="Trazado_17" data-name="Trazado 17" d="M33.623,37.033,15.989,3.238,0,37.033H1.323l10.65-22.614L22.526,37.033Z" transform="translate(0 -0.505)"/>
        <path id="Trazado_18" data-name="Trazado 18" d="M13.817,32.513h-5.7l-.4,1.086h6.587Z" transform="translate(-1.204 -5.065)"/>
      </g>
    </g>
  </g>
</svg>
